# xmcd
#
# Track frame offsets:
#	150
#	13893
#	30599
#	48610
#	66191
#	82472
#	96174
#	114974
#	132986
#	148664
#	165557
#	180060
#	194583
#	210609
#	227734
#
# Disc length: 3223 seconds
#
# Revision: 1
# Processed by: cddbd v1.5.2PL0 Copyright (c) Steve Scherf et al.
# Submitted via: audiograbber 1.83.01
#
DISCID=d30c950f
DTITLE=Keith, Toby - Sing It Now
DYEAR=1900
DGENRE=Karaoke
TTITLE0=Get Drunk And Be Somebody
TTITLE1=Little Too Late, A
TTITLE2=Whiskey Girl
TTITLE3=As Good As I Once Was
TTITLE4=Honkytonk U
TTITLE5=Big Blue Note
TTITLE6=An American Soldier
TTITLE7=I Love This Bar
TTITLE8=Beer For My Horses
TTITLE9=Stays In Mexico
TTITLE10=I Wanna Talk About Me
TTITLE11=Who's Your Daddy
TTITLE12=Courtesy Of The Red, White And Blue
TTITLE13=How Do Ya Like Me Now
TTITLE14=I'm Just Talkin About Tonight
EXTD=
EXTT0=
EXTT1=
EXTT2=
EXTT3=
EXTT4=
EXTT5=
EXTT6=
EXTT7=
EXTT8=
EXTT9=
EXTT10=
EXTT11=
EXTT12=
EXTT13=
EXTT14=
PLAYORDER=
